# xmcd
#
# Track frame offsets: 
#        150
#        9932
#        20114
#        28839
#        39435
#        50035
#        58499
#        69413
#        79424
#        89439
#        99514
#        110967
#        120000
#        131282
#        143022
#        154695
#        164594
#        173893
#        186844
#        197507
#        207747
#        218983
#        230148
#        242643
#
# Disc length: 3541 seconds
#
# Revision: 3
# Processed by: cddbd v1.5.2PL0 Copyright (c) Steve Scherf et al.
# Submitted via: ExactAudioCopyFreeDBPlugin 1.0
#
DISCID=5f0dd318
DTITLE=Various Artist - Gwiazdy Idole Przeboje. Król Elvis i jego dwór
DYEAR=2006
DGENRE=Rock and Roll
TTITLE0=Bill Haley And His Comets - (We`re Gonna) Rock Around The Cloc
TTITLE0=k
TTITLE1=Carl Perkins - Blue Suede Shoes
TTITLE2=Elvis Presley - That's All Right
TTITLE3=Chuck Berry - Maybellene
TTITLE4=Fats Domino - Blueberry Hill
TTITLE5=Jerry Lee Lewis - Great Balls Of Fire
TTITLE6=Little Richard - Lucille
TTITLE7=Wanda Jackson - Fujiyama Mama
TTITLE8=Elvis Presley - Good Rockin' Tonight
TTITLE9=Frankie Avalon - Dede Dinah
TTITLE10=Pat Boone - Speedy Gonzales
TTITLE11=Brenda Lee - Dynamite
TTITLE12=Buddy Holly And The Crickets - Peggy Sue
TTITLE13=The Platters - Only You (And You Alone)
TTITLE14=Gene Vincent - Be-Bop-A-Lula
TTITLE15=The Beatles - Ain't She Sweet
TTITLE16=Elvis Presley - Blue Moon Of Kentucky
TTITLE17=Lulu And The Luvvers - Shout
TTITLE18=Chubby Checker - Let's Twist Again
TTITLE19=Little Eva - The Loco-Motion
TTITLE20=Carl Mann - Mona Lisa
TTITLE21=Hele Shapiro - Walkin' Back To Happiness
TTITLE22=Bill Haley And His Comets - See You Later, Alligator
TTITLE23=Danny Mirror - I Remember Elvis Presley
EXTD=
EXTT0=
EXTT1=
EXTT2=
EXTT3=
EXTT4=
EXTT5=
EXTT6=
EXTT7=
EXTT8=
EXTT9=
EXTT10=
EXTT11=
EXTT12=
EXTT13=
EXTT14=
EXTT15=
EXTT16=
EXTT17=
EXTT18=
EXTT19=
EXTT20=
EXTT21=
EXTT22=
EXTT23=
PLAYORDER=
